<?xml version="1.0" standalone="no"?>
<!DOCTYPE svg PUBLIC "-//W3C//DTD SVG 20010904//EN"
 "http://www.w3.org/TR/2001/REC-SVG-20010904/DTD/svg10.dtd">
<svg version="1.0" xmlns="http://www.w3.org/2000/svg"
 width="300.000000pt" height="300.000000pt" viewBox="0 0 300.000000 300.000000"
 preserveAspectRatio="xMidYMid meet">
<g transform="translate(0.000000,300.000000) scale(0.100000,-0.100000)"
fill="#000000" stroke="none">
<path d="M289 2255 c0 -14 0 -45 0 -70 0 -25 0 -49 0 -55 1 -6 43 -10 106 -10
l105 0 -1 -645 -1 -645 -104 0 -104 0 0 -80 0 -80 315 0 c245 0 315 3 316 13
1 14 1 81 0 120 l-1 27 -105 0 -105 0 0 645 0 645 108 0 107 0 -2 67 c-1 38
-2 74 -2 81 -1 9 -71 12 -316 12 l-315 0 -1 -25z"/>
<path d="M1349 2274 c-1 -5 -2 -368 -3 -808 l-1 -798 325 5 c179 3 341 8 360
11 299 52 497 201 606 456 93 216 86 517 -15 718 -89 177 -269 329 -440 372
-93 23 -118 29 -156 35 -63 10 -675 18 -676 9z m636 -188 c250 -53 400 -175
465 -383 28 -87 35 -304 14 -403 -28 -130 -82 -226 -171 -300 -134 -112 -266
-146 -570 -149 l-163 -2 0 627 0 626 198 -5 c108 -3 211 -8 227 -11z"/>
</g>
</svg>
